<svg xmlns="http://www.w3.org/2000/svg" shape-rendering="geometricPrecision" viewBox="0 0 284 192" width="284" height="192">
    <g id="Layer_2" data-name="Layer 2">
        <g id="Ebene_1" data-name="Ebene 1">
            <path
                style="fill: #e30613"
                d="M177.3,66.48l-4.9-48.91a.37.37,0,0,0-.1-.3l-7-16.5c0-.1-.1-.1-.1-.19h0l-.1-.1h0a1,1,0,0,0-.5-.4.59.59,0,0,0-.6,0h0c-.1,0-.1,0-.2.1h0L124.4,18a1.17,1.17,0,0,0-.6.6l-18.3,51.6a1.09,1.09,0,0,0,.2,1.1L131.1,105a1,1,0,0,0,.9.4h.3l22.7-5.3a.76.76,0,0,0,.4-.2h0c.1-.1.2-.2.2-.3l21.6-32.4a.76.76,0,0,0,.2-.5h0v-.1h0C177.3,66.67,177.3,66.57,177.3,66.48Zm-3.1-1.31-29-4.8-.3-26.3,18,7Zm-11.6-26.6-17.3-6.7L163,5Zm-1.4-34.7-18,27.2-9.6-3.7-6.9-7.9ZM143,61.07,126.5,77.38l7.4-47.5,8.8,3.4L143,61Zm-17.7-39.8,6.5,7.4L124,78.77l-16.1-8.7Zm7.1,81.8-21.8-29,13.8,7.5,27.3,17Zm-5.7-22.8,17-16.8,9,33ZM155,96.38l-9.2-33.6,28.4,4.7ZM164.9,40l.5-33.41,4.9,11.5,4.2,42.2Z" />
            <path
                style="fill: #1e332e"
                d="M80.2,160l-1.2.1-.1.2h10l-.1-.2-.9-.1c-1.7-.2-1.9-.3-1.9-.5V150h9.3v9.4c0,.2-.4.4-1.5.6l-1.3.1-.1.2h10l-.1-.2-.9-.1c-1.7-.2-1.9-.3-1.9-.5v-18.9c0-.19.4-.39,1.5-.6l1.2-.1.1-.2h-10l.1.2.9.1c1.7.2,1.9.3,1.9.5v9.1H85.9v-9c0-.19.4-.39,1.5-.6l1.3-.1.1-.2h-10l.1.2.9.1c1.7.2,1.9.3,1.9.5v18.9Q81.85,159.67,80.2,160Z" />
            <path
                style="fill: #1e332e"
                d="M119.2,139.27c-6.3,0-11.5,5.11-11.5,10.7,0,6.4,4.7,10.7,11.1,10.7s11.5-5,11.5-10.6C130.3,143.68,125.6,139.27,119.2,139.27Zm0,21c-4.2,0-6.8-3.7-6.8-10.3,0-6.9,2.3-10.3,6.6-10.3,4.1,0,6.7,3.8,6.7,10.3C125.7,157,123.4,160.27,119.2,160.27Z" />
            <path
                style="fill: #1e332e"
                d="M136,139.68l-1,6.1h.2l.2-.4c1.1-2.1,3.2-5.2,6.4-5.4h1.1v19.4c0,.2-.4.5-1.5.6l-1.5.1-.1.2h10.5l-.1-.2-1.1-.1c-1.7-.2-1.9-.3-1.9-.5V140h1.1c3,.1,5.2,2.9,6.3,5.4l.2.4h.2l-.6-6.1Z" />
            <path
                style="fill: #1e332e"
                d="M162.6,160l-1.2.1-.1.2h17.5l.9-6.89h-.2l-.2.39c-1.3,3.61-3.5,6.11-7.7,6.2l-3.2-.1V150l1.1.1c3.4.2,4.3.81,4.5,3.2v.61h.2l.9-7.9h-.2l-.2.6c-.7,2.1-2,2.9-4.9,3.1h-1.4v-9.61h2.5c4-.1,5.9,1.61,7.2,6l.1.4h.2l-.3-6.7H161.3l.1.2.9.1c1.7.2,1.9.31,1.9.5v18.9C164.2,159.57,163.7,159.77,162.6,160Z" />
            <path
                style="fill: #1e332e"
                d="M187.3,160l-1.3.1-.1.2h16.5l1.1-7.5h-.2l-.2.4c-2.1,4.6-3.9,6.8-7.6,6.8l-2.4-.2v-19.2c0-.3.6-.5,1.5-.6l1.8-.1.1-.2H186l.1.2.9.1c1.7.2,1.8.3,1.8.5v18.9C188.8,159.57,188.5,159.77,187.3,160Z" />
            <path
                style="fill: #1e332e"
                d="M22.2,169.57l1.2-.1.1-.2h-10l.1.2.9.1c1.7.2,1.9.31,1.9.5v9.11H7.1v-9c0-.2.4-.4,1.5-.61l1.3-.1.1-.2H0l.1.2.9.1c1.7.2,1.9.31,1.9.5V189c0,.2-.4.4-1.5.6l-1.2.11-.1.2h10l-.1-.2-.9-.11c-1.7-.19-1.9-.3-1.9-.5v-9.5h9.3V189c0,.2-.4.4-1.5.6l-1.3.11-.1.2h10l-.1-.2-.9-.11c-1.7-.19-1.9-.3-1.9-.5v-19C20.7,169.88,21.1,169.68,22.2,169.57Z" />
            <path
                style="fill: #1e332e"
                d="M39.7,168.77c-6.3,0-11.5,5.11-11.5,10.7,0,6.4,4.7,10.7,11.1,10.7s11.5-5,11.5-10.6C50.8,173.18,46.1,168.77,39.7,168.77Zm0,21c-4.2,0-6.8-3.7-6.8-10.3,0-6.9,2.3-10.3,6.6-10.3,4.1,0,6.7,3.8,6.7,10.3C46.2,186.38,43.9,189.77,39.7,189.77Z" />
            <path
                style="fill: #1e332e"
                d="M75.9,184.88c-1.6,3.1-3.7,4.89-7.3,4.89-4.1,0-7.4-4-7.4-10.39,0-5.81,2.7-10.31,7.6-10.31a7.6,7.6,0,0,1,4.1,1l3.3,5.81h.2l-.2-6.61-2.1.7a12.57,12.57,0,0,0-5.3-1.2c-7.7,0-12.2,4.8-12.2,10.9s4.7,10.5,11.9,10.5A20.93,20.93,0,0,0,75,189l1.1-.2,1.1-5.8H77Z" />
            <path
                style="fill: #1e332e"
                d="M104.9,169.57l1.2-.1.1-.2h-10l.1.2.9.1c1.7.2,1.9.31,1.9.5v9.11H89.8v-9c0-.2.4-.4,1.5-.61l1.3-.1.1-.2h-10l.1.2.9.1c1.7.2,1.9.31,1.9.5V189c0,.2-.4.4-1.5.6l-1.2.11-.1.2h10l-.1-.2-.9-.11c-1.7-.19-1.9-.3-1.9-.5v-9.5h9.3V189c0,.2-.4.4-1.5.6l-1.3.11-.1.2h10l-.1-.2-.9-.11c-1.7-.19-1.9-.3-1.9-.5v-19C103.3,169.88,103.7,169.68,104.9,169.57Z" />
            <path
                style="fill: #1e332e"
                d="M120.3,176.88c-2.6-1-4.9-1.9-4.9-4.31a3.51,3.51,0,0,1,3.7-3.39,5.54,5.54,0,0,1,3.2.89l2.8,4.81h.2l-.1-5.7-1.3.5a14.09,14.09,0,0,0-4.6-.8c-4,0-6.8,2.69-6.8,6.1s2.6,4.7,5.7,5.9c2.8,1,5.1,2.1,5.1,4.89,0,2.61-1.7,4.2-4.4,4.2a5.8,5.8,0,0,1-5.5-3.6l-1.3-2.5h-.2l.4,5.3a17.94,17.94,0,0,0,6.5,1.2c4.5,0,7.6-3.3,7.6-6.8C126.3,179.57,123.7,178,120.3,176.88Z" />
            <path
                style="fill: #1e332e"
                d="M151.8,184.88c-1.6,3.1-3.7,4.89-7.3,4.89-4.1,0-7.4-4-7.4-10.39,0-5.81,2.7-10.31,7.6-10.31a7.6,7.6,0,0,1,4.1,1l3.3,5.81h.2l-.2-6.61-2.1.7a12.57,12.57,0,0,0-5.3-1.2c-7.7,0-12.2,4.8-12.2,10.9s4.7,10.5,11.9,10.5a20.93,20.93,0,0,0,6.5-1.2l1.1-.2,1.1-5.8h-.2Z" />
            <path
                style="fill: #1e332e"
                d="M180.7,169.57l1.2-.1.1-.2H172l.1.2.9.1c1.7.2,1.9.31,1.9.5v9.11h-9.3v-9c0-.2.4-.4,1.5-.61l1.2-.1.1-.2h-10l.1.2.9.1c1.7.2,1.9.31,1.9.5V189c0,.2-.4.4-1.5.6l-1.2.11-.1.2h10l-.1-.2-.9-.11c-1.7-.19-1.9-.3-1.9-.5v-9.5h9.3V189c0,.2-.4.4-1.5.6l-1.3.11-.1.2h10l-.1-.2-.9-.11c-1.7-.19-1.9-.3-1.9-.5v-19C179.2,169.88,179.6,169.68,180.7,169.57Z" />
            <path
                style="fill: #1e332e"
                d="M198.2,168.77c-6.3,0-11.5,5.11-11.5,10.7,0,6.4,4.7,10.7,11.1,10.7s11.5-5,11.5-10.6C209.3,173.18,204.6,168.77,198.2,168.77Zm0,21c-4.2,0-6.8-3.7-6.8-10.3,0-6.9,2.3-10.3,6.6-10.3,4.1,0,6.7,3.8,6.7,10.3C204.7,186.38,202.4,189.77,198.2,189.77Z" />
            <path
                style="fill: #1e332e"
                d="M224.7,178.27h0c4.1-.7,6.1-2.3,6.1-4.5,0-2.8-2.2-4.6-8.6-4.6h-8.7l.1.2.9.1c1.7.2,1.9.2,1.9.5v18.9c0,.2-.4.4-1.5.6l-1.2.1-.1.2h9.3c6.3,0,9.2-2.39,9.2-5.89C231.8,180.88,229.2,178.57,224.7,178.27Zm-4.2-8.59h.9c3.1,0,5,1.39,5,4.3s-2,4.4-5.1,4.4h-.8v-8.7Zm2.1,19.7c.2,0-.4.1-.4.1l-1.7-.6V178.77a4.89,4.89,0,0,1,1.3-.1,5.31,5.31,0,0,1,5.6,5.4A5.11,5.11,0,0,1,222.6,189.38Z" />
            <path
                style="fill: #1e332e"
                d="M255.4,183.27c-1.3,3.61-3.5,6.11-7.7,6.2l-3.2-.1v-9.9l1.1.1c3.4.2,4.3.81,4.5,3.2v.61h.2l.9-7.9H251l-.2.6c-.7,2.1-2,2.9-4.9,3.1h-1.4v-9.4H247c4-.1,5.9,1.6,7.2,6l.1.4h.2l-.3-6.7H237.4l.1.2.9.1c1.7.2,1.9.3,1.9.5v18.9c0,.2-.5.4-1.6.6l-1.2.1-.1.2h17.5l.9-6.9h-.2Z" />
            <path
                style="fill: #1e332e"
                d="M283,189.57h-.4c-1.7-.19-2.3-.8-3.9-3.39l-4.3-6.7c3.1-.6,5.1-2.6,5.1-5,0-3.6-2.9-5.3-8.6-5.3h-9.8l.1.2,1.1.1c1.7.2,1.9.3,1.9.5v18.9c0,.19-.7.5-1.5.6l-1.4.1-.1.2h10.5l-.1-.2-1.3-.1c-1.2-.1-1.8-.3-1.8-.5V179a12.09,12.09,0,0,0,1.8.5l5.5,9.8.3.5h7.1Zm-12.9-10.69a4.15,4.15,0,0,1-1.6-.31v-9.1h1.3c3.5-.1,5.4,1.8,5.4,4.7C275,177.27,273.2,178.88,270.1,178.88Z" />
        </g>
    </g>
</svg>